<svg xmlns="http://www.w3.org/2000/svg" xmlns:xlink="http://www.w3.org/1999/xlink" zoomAndPan="magnify" preserveAspectRatio="xMidYMid meet" version="1.0" viewBox="0.02 0 33.98 24.27"><defs><g/><clipPath id="6d61508b11"><path d="M 0.015625 0 L 33.992188 0 L 33.992188 24.269531 L 0.015625 24.269531 Z M 0.015625 0 " clip-rule="nonzero"/></clipPath></defs><g clip-path="url(#6d61508b11)"><path fill="#86b049" d="M 17.003906 10.457031 L 17.863281 11.316406 C 18.316406 11.769531 18.316406 12.5 17.863281 12.953125 L 17.003906 13.8125 L 16.144531 12.953125 C 15.691406 12.5 15.691406 11.769531 16.144531 11.316406 Z M 12.140625 0 C 11.546875 0 10.957031 0.226562 10.503906 0.679688 L 0.695312 10.5 C -0.210938 11.40625 -0.210938 12.863281 0.695312 13.769531 L 10.503906 23.589844 C 11.410156 24.496094 12.867188 24.496094 13.773438 23.589844 L 15.410156 21.953125 L 11.324219 17.863281 L 6.417969 12.953125 L 6.402344 12.9375 L 6.402344 12.933594 C 5.964844 12.480469 5.96875 11.765625 6.417969 11.316406 L 11.324219 6.40625 C 11.773438 5.953125 12.503906 5.953125 12.957031 6.40625 L 13.734375 7.183594 L 10.421875 10.5 C 9.515625 11.40625 9.515625 12.863281 10.421875 13.769531 L 20.230469 23.589844 C 21.136719 24.496094 22.597656 24.496094 23.503906 23.589844 L 33.3125 13.769531 C 34.21875 12.863281 34.21875 11.40625 33.3125 10.5 L 23.503906 0.679688 C 22.597656 -0.226562 21.136719 -0.226562 20.230469 0.679688 L 18.597656 2.316406 L 22.683594 6.40625 L 27.589844 11.316406 L 27.605469 11.332031 C 28.042969 11.789062 28.039062 12.503906 27.589844 12.953125 L 22.683594 17.863281 C 22.234375 18.316406 21.503906 18.316406 21.050781 17.863281 L 20.273438 17.085938 L 23.585938 13.769531 C 24.492188 12.863281 24.492188 11.40625 23.585938 10.5 L 13.773438 0.679688 C 13.320312 0.226562 12.730469 0 12.140625 0 " fill-opacity="1" fill-rule="nonzero"/></g><g fill="#86b049" fill-opacity="1"><g transform="translate(9.193014, 4.287858)"><g><path d="M 0.671875 0 L 0.53125 0 L 0.484375 -0.171875 L 0.203125 -0.171875 L 0.15625 0 L 0.015625 0 L 0.25 -0.703125 L 0.4375 -0.703125 Z M 0.34375 -0.546875 L 0.25 -0.28125 L 0.4375 -0.28125 L 0.359375 -0.546875 Z M 0.34375 -0.546875 "/></g></g><g transform="translate(9.878875, 4.287858)"><g><path d="M 0.265625 0.015625 C 0.222656 0.015625 0.1875 0.00390625 0.15625 -0.015625 C 0.125 -0.0351562 0.0976562 -0.0664062 0.078125 -0.109375 C 0.0546875 -0.148438 0.046875 -0.203125 0.046875 -0.265625 C 0.046875 -0.328125 0.0546875 -0.378906 0.078125 -0.421875 C 0.0976562 -0.460938 0.125 -0.488281 0.15625 -0.5 C 0.1875 -0.519531 0.222656 -0.53125 0.265625 -0.53125 C 0.304688 -0.53125 0.335938 -0.523438 0.359375 -0.515625 C 0.378906 -0.515625 0.398438 -0.503906 0.421875 -0.484375 L 0.4375 -0.484375 L 0.4375 -0.734375 L 0.546875 -0.734375 L 0.546875 0 L 0.4375 0 L 0.4375 -0.0625 L 0.421875 -0.078125 C 0.410156 -0.046875 0.390625 -0.0195312 0.359375 0 C 0.335938 0.0078125 0.304688 0.015625 0.265625 0.015625 Z M 0.3125 -0.109375 C 0.351562 -0.109375 0.382812 -0.117188 0.40625 -0.140625 C 0.425781 -0.171875 0.4375 -0.210938 0.4375 -0.265625 C 0.4375 -0.328125 0.425781 -0.367188 0.40625 -0.390625 C 0.382812 -0.421875 0.351562 -0.4375 0.3125 -0.4375 C 0.269531 -0.4375 0.238281 -0.421875 0.21875 -0.390625 C 0.195312 -0.367188 0.1875 -0.328125 0.1875 -0.265625 C 0.1875 -0.210938 0.195312 -0.171875 0.21875 -0.140625 C 0.238281 -0.117188 0.269531 -0.109375 0.3125 -0.109375 Z M 0.3125 -0.109375 "/></g></g><g transform="translate(10.515161, 4.287858)"><g><path d="M 0.265625 0.015625 C 0.222656 0.015625 0.1875 0.00390625 0.15625 -0.015625 C 0.125 -0.0351562 0.0976562 -0.0664062 0.078125 -0.109375 C 0.0546875 -0.148438 0.046875 -0.203125 0.046875 -0.265625 C 0.046875 -0.328125 0.0546875 -0.378906 0.078125 -0.421875 C 0.0976562 -0.460938 0.125 -0.488281 0.15625 -0.5 C 0.1875 -0.519531 0.222656 -0.53125 0.265625 -0.53125 C 0.304688 -0.53125 0.335938 -0.523438 0.359375 -0.515625 C 0.378906 -0.515625 0.398438 -0.503906 0.421875 -0.484375 L 0.4375 -0.484375 L 0.4375 -0.734375 L 0.546875 -0.734375 L 0.546875 0 L 0.4375 0 L 0.4375 -0.0625 L 0.421875 -0.078125 C 0.410156 -0.046875 0.390625 -0.0195312 0.359375 0 C 0.335938 0.0078125 0.304688 0.015625 0.265625 0.015625 Z M 0.3125 -0.109375 C 0.351562 -0.109375 0.382812 -0.117188 0.40625 -0.140625 C 0.425781 -0.171875 0.4375 -0.210938 0.4375 -0.265625 C 0.4375 -0.328125 0.425781 -0.367188 0.40625 -0.390625 C 0.382812 -0.421875 0.351562 -0.4375 0.3125 -0.4375 C 0.269531 -0.4375 0.238281 -0.421875 0.21875 -0.390625 C 0.195312 -0.367188 0.1875 -0.328125 0.1875 -0.265625 C 0.1875 -0.210938 0.195312 -0.171875 0.21875 -0.140625 C 0.238281 -0.117188 0.269531 -0.109375 0.3125 -0.109375 Z M 0.3125 -0.109375 "/></g></g><g transform="translate(11.151448, 4.287858)"><g/></g><g transform="translate(11.383919, 4.287858)"><g><path d="M 0.203125 0.015625 C 0.171875 0.015625 0.140625 0.0078125 0.109375 0 C 0.0859375 -0.0195312 0.0703125 -0.0390625 0.0625 -0.0625 C 0.0507812 -0.09375 0.046875 -0.125 0.046875 -0.15625 C 0.046875 -0.1875 0.0507812 -0.210938 0.0625 -0.234375 C 0.0703125 -0.253906 0.09375 -0.269531 0.125 -0.28125 C 0.15625 -0.300781 0.191406 -0.3125 0.234375 -0.3125 C 0.265625 -0.320312 0.289062 -0.328125 0.3125 -0.328125 C 0.332031 -0.335938 0.34375 -0.347656 0.34375 -0.359375 C 0.351562 -0.367188 0.359375 -0.378906 0.359375 -0.390625 C 0.359375 -0.398438 0.347656 -0.410156 0.328125 -0.421875 C 0.316406 -0.429688 0.300781 -0.4375 0.28125 -0.4375 C 0.25 -0.4375 0.21875 -0.429688 0.1875 -0.421875 C 0.164062 -0.410156 0.144531 -0.394531 0.125 -0.375 L 0.109375 -0.375 L 0.046875 -0.453125 C 0.078125 -0.484375 0.113281 -0.503906 0.15625 -0.515625 C 0.195312 -0.523438 0.238281 -0.53125 0.28125 -0.53125 C 0.351562 -0.53125 0.40625 -0.515625 0.4375 -0.484375 C 0.46875 -0.460938 0.484375 -0.425781 0.484375 -0.375 L 0.484375 -0.140625 C 0.484375 -0.117188 0.492188 -0.109375 0.515625 -0.109375 C 0.523438 -0.109375 0.53125 -0.109375 0.53125 -0.109375 L 0.546875 -0.015625 C 0.535156 -0.00390625 0.523438 0 0.515625 0 C 0.503906 0 0.492188 0 0.484375 0 C 0.453125 0 0.425781 -0.00390625 0.40625 -0.015625 C 0.382812 -0.0234375 0.375 -0.046875 0.375 -0.078125 L 0.359375 -0.078125 C 0.328125 -0.015625 0.273438 0.015625 0.203125 0.015625 Z M 0.25 -0.09375 C 0.28125 -0.09375 0.304688 -0.101562 0.328125 -0.125 C 0.347656 -0.144531 0.359375 -0.171875 0.359375 -0.203125 L 0.359375 -0.265625 L 0.34375 -0.265625 C 0.332031 -0.253906 0.320312 -0.25 0.3125 -0.25 C 0.300781 -0.25 0.285156 -0.242188 0.265625 -0.234375 C 0.234375 -0.234375 0.207031 -0.222656 0.1875 -0.203125 C 0.175781 -0.191406 0.171875 -0.175781 0.171875 -0.15625 C 0.171875 -0.132812 0.175781 -0.117188 0.1875 -0.109375 C 0.207031 -0.0976562 0.226562 -0.09375 0.25 -0.09375 Z M 0.25 -0.09375 "/></g></g><g transform="translate(11.943677, 4.287858)"><g/></g><g transform="translate(12.176148, 4.287858)"><g><path d="M 0.078125 0 L 0.078125 -0.734375 L 0.21875 -0.734375 L 0.21875 -0.46875 C 0.238281 -0.488281 0.257812 -0.503906 0.28125 -0.515625 C 0.3125 -0.523438 0.347656 -0.53125 0.390625 -0.53125 C 0.492188 -0.53125 0.546875 -0.46875 0.546875 -0.34375 L 0.546875 0 L 0.421875 0 L 0.421875 -0.328125 C 0.421875 -0.367188 0.410156 -0.394531 0.390625 -0.40625 C 0.378906 -0.425781 0.363281 -0.4375 0.34375 -0.4375 C 0.300781 -0.4375 0.269531 -0.421875 0.25 -0.390625 C 0.226562 -0.367188 0.21875 -0.332031 0.21875 -0.28125 L 0.21875 0 Z M 0.078125 0 "/></g></g><g transform="translate(12.797995, 4.287858)"><g><path d="M 0.53125 -0.234375 L 0.1875 -0.234375 C 0.1875 -0.191406 0.195312 -0.160156 0.21875 -0.140625 C 0.25 -0.117188 0.28125 -0.109375 0.3125 -0.109375 C 0.34375 -0.109375 0.367188 -0.113281 0.390625 -0.125 C 0.410156 -0.132812 0.425781 -0.148438 0.4375 -0.171875 L 0.453125 -0.171875 L 0.53125 -0.109375 C 0.519531 -0.078125 0.492188 -0.046875 0.453125 -0.015625 C 0.421875 0.00390625 0.375 0.015625 0.3125 0.015625 C 0.257812 0.015625 0.210938 0.00390625 0.171875 -0.015625 C 0.128906 -0.0351562 0.0976562 -0.0664062 0.078125 -0.109375 C 0.0546875 -0.148438 0.046875 -0.203125 0.046875 -0.265625 C 0.046875 -0.328125 0.0546875 -0.378906 0.078125 -0.421875 C 0.109375 -0.460938 0.140625 -0.488281 0.171875 -0.5 C 0.210938 -0.519531 0.257812 -0.53125 0.3125 -0.53125 C 0.382812 -0.53125 0.4375 -0.507812 0.46875 -0.46875 C 0.507812 -0.4375 0.53125 -0.382812 0.53125 -0.3125 C 0.53125 -0.28125 0.53125 -0.257812 0.53125 -0.25 Z M 0.421875 -0.328125 C 0.421875 -0.367188 0.410156 -0.394531 0.390625 -0.40625 C 0.367188 -0.425781 0.34375 -0.4375 0.3125 -0.4375 C 0.238281 -0.4375 0.195312 -0.398438 0.1875 -0.328125 Z M 0.421875 -0.328125 "/></g></g><g transform="translate(13.375081, 4.287858)"><g><path d="M 0.203125 0.015625 C 0.171875 0.015625 0.140625 0.0078125 0.109375 0 C 0.0859375 -0.0195312 0.0703125 -0.0390625 0.0625 -0.0625 C 0.0507812 -0.09375 0.046875 -0.125 0.046875 -0.15625 C 0.046875 -0.1875 0.0507812 -0.210938 0.0625 -0.234375 C 0.0703125 -0.253906 0.09375 -0.269531 0.125 -0.28125 C 0.15625 -0.300781 0.191406 -0.3125 0.234375 -0.3125 C 0.265625 -0.320312 0.289062 -0.328125 0.3125 -0.328125 C 0.332031 -0.335938 0.34375 -0.347656 0.34375 -0.359375 C 0.351562 -0.367188 0.359375 -0.378906 0.359375 -0.390625 C 0.359375 -0.398438 0.347656 -0.410156 0.328125 -0.421875 C 0.316406 -0.429688 0.300781 -0.4375 0.28125 -0.4375 C 0.25 -0.4375 0.21875 -0.429688 0.1875 -0.421875 C 0.164062 -0.410156 0.144531 -0.394531 0.125 -0.375 L 0.109375 -0.375 L 0.046875 -0.453125 C 0.078125 -0.484375 0.113281 -0.503906 0.15625 -0.515625 C 0.195312 -0.523438 0.238281 -0.53125 0.28125 -0.53125 C 0.351562 -0.53125 0.40625 -0.515625 0.4375 -0.484375 C 0.46875 -0.460938 0.484375 -0.425781 0.484375 -0.375 L 0.484375 -0.140625 C 0.484375 -0.117188 0.492188 -0.109375 0.515625 -0.109375 C 0.523438 -0.109375 0.53125 -0.109375 0.53125 -0.109375 L 0.546875 -0.015625 C 0.535156 -0.00390625 0.523438 0 0.515625 0 C 0.503906 0 0.492188 0 0.484375 0 C 0.453125 0 0.425781 -0.00390625 0.40625 -0.015625 C 0.382812 -0.0234375 0.375 -0.046875 0.375 -0.078125 L 0.359375 -0.078125 C 0.328125 -0.015625 0.273438 0.015625 0.203125 0.015625 Z M 0.25 -0.09375 C 0.28125 -0.09375 0.304688 -0.101562 0.328125 -0.125 C 0.347656 -0.144531 0.359375 -0.171875 0.359375 -0.203125 L 0.359375 -0.265625 L 0.34375 -0.265625 C 0.332031 -0.253906 0.320312 -0.25 0.3125 -0.25 C 0.300781 -0.25 0.285156 -0.242188 0.265625 -0.234375 C 0.234375 -0.234375 0.207031 -0.222656 0.1875 -0.203125 C 0.175781 -0.191406 0.171875 -0.175781 0.171875 -0.15625 C 0.171875 -0.132812 0.175781 -0.117188 0.1875 -0.109375 C 0.207031 -0.0976562 0.226562 -0.09375 0.25 -0.09375 Z M 0.25 -0.09375 "/></g></g><g transform="translate(13.93484, 4.287858)"><g><path d="M 0.265625 0.015625 C 0.222656 0.015625 0.1875 0.00390625 0.15625 -0.015625 C 0.125 -0.0351562 0.0976562 -0.0664062 0.078125 -0.109375 C 0.0546875 -0.148438 0.046875 -0.203125 0.046875 -0.265625 C 0.046875 -0.328125 0.0546875 -0.378906 0.078125 -0.421875 C 0.0976562 -0.460938 0.125 -0.488281 0.15625 -0.5 C 0.1875 -0.519531 0.222656 -0.53125 0.265625 -0.53125 C 0.304688 -0.53125 0.335938 -0.523438 0.359375 -0.515625 C 0.378906 -0.515625 0.398438 -0.503906 0.421875 -0.484375 L 0.4375 -0.484375 L 0.4375 -0.734375 L 0.546875 -0.734375 L 0.546875 0 L 0.4375 0 L 0.4375 -0.0625 L 0.421875 -0.078125 C 0.410156 -0.046875 0.390625 -0.0195312 0.359375 0 C 0.335938 0.0078125 0.304688 0.015625 0.265625 0.015625 Z M 0.3125 -0.109375 C 0.351562 -0.109375 0.382812 -0.117188 0.40625 -0.140625 C 0.425781 -0.171875 0.4375 -0.210938 0.4375 -0.265625 C 0.4375 -0.328125 0.425781 -0.367188 0.40625 -0.390625 C 0.382812 -0.421875 0.351562 -0.4375 0.3125 -0.4375 C 0.269531 -0.4375 0.238281 -0.421875 0.21875 -0.390625 C 0.195312 -0.367188 0.1875 -0.328125 0.1875 -0.265625 C 0.1875 -0.210938 0.195312 -0.171875 0.21875 -0.140625 C 0.238281 -0.117188 0.269531 -0.109375 0.3125 -0.109375 Z M 0.3125 -0.109375 "/></g></g><g transform="translate(14.571126, 4.287858)"><g><path d="M 0.140625 -0.59375 C 0.117188 -0.59375 0.0976562 -0.597656 0.078125 -0.609375 C 0.0664062 -0.617188 0.0625 -0.640625 0.0625 -0.671875 C 0.0625 -0.691406 0.0664062 -0.707031 0.078125 -0.71875 C 0.0976562 -0.738281 0.117188 -0.75 0.140625 -0.75 C 0.160156 -0.75 0.175781 -0.742188 0.1875 -0.734375 C 0.195312 -0.722656 0.207031 -0.710938 0.21875 -0.703125 C 0.226562 -0.691406 0.234375 -0.679688 0.234375 -0.671875 C 0.234375 -0.648438 0.226562 -0.632812 0.21875 -0.625 C 0.207031 -0.613281 0.195312 -0.601562 0.1875 -0.59375 C 0.175781 -0.59375 0.160156 -0.59375 0.140625 -0.59375 Z M 0.078125 0 L 0.078125 -0.53125 L 0.21875 -0.53125 L 0.21875 0 Z M 0.078125 0 "/></g></g><g transform="translate(14.857022, 4.287858)"><g><path d="M 0.078125 0 L 0.078125 -0.53125 L 0.203125 -0.53125 L 0.203125 -0.453125 L 0.21875 -0.453125 C 0.25 -0.503906 0.300781 -0.53125 0.375 -0.53125 C 0.4375 -0.53125 0.476562 -0.515625 0.5 -0.484375 C 0.53125 -0.460938 0.546875 -0.414062 0.546875 -0.34375 L 0.546875 0 L 0.421875 0 L 0.421875 -0.328125 C 0.421875 -0.367188 0.414062 -0.394531 0.40625 -0.40625 C 0.394531 -0.425781 0.375 -0.4375 0.34375 -0.4375 C 0.300781 -0.4375 0.269531 -0.421875 0.25 -0.390625 C 0.226562 -0.367188 0.21875 -0.332031 0.21875 -0.28125 L 0.21875 0 Z M 0.078125 0 "/></g></g><g transform="translate(15.478869, 4.287858)"><g><path d="M 0.28125 0.234375 C 0.1875 0.234375 0.117188 0.21875 0.078125 0.1875 C 0.0351562 0.164062 0.015625 0.128906 0.015625 0.078125 C 0.015625 0.046875 0.0234375 0.0195312 0.046875 0 C 0.0664062 -0.0078125 0.09375 -0.0195312 0.125 -0.03125 C 0.101562 -0.0390625 0.0859375 -0.0507812 0.078125 -0.0625 C 0.078125 -0.0820312 0.078125 -0.101562 0.078125 -0.125 C 0.078125 -0.164062 0.101562 -0.191406 0.15625 -0.203125 L 0.15625 -0.21875 C 0.125 -0.238281 0.0976562 -0.257812 0.078125 -0.28125 C 0.0664062 -0.300781 0.0625 -0.332031 0.0625 -0.375 C 0.0625 -0.40625 0.0703125 -0.429688 0.09375 -0.453125 C 0.113281 -0.484375 0.140625 -0.503906 0.171875 -0.515625 C 0.203125 -0.523438 0.238281 -0.53125 0.28125 -0.53125 C 0.320312 -0.53125 0.359375 -0.53125 0.390625 -0.53125 C 0.398438 -0.539062 0.410156 -0.5625 0.421875 -0.59375 L 0.53125 -0.578125 C 0.519531 -0.546875 0.507812 -0.523438 0.5 -0.515625 C 0.488281 -0.503906 0.472656 -0.492188 0.453125 -0.484375 L 0.453125 -0.46875 C 0.472656 -0.4375 0.484375 -0.398438 0.484375 -0.359375 C 0.484375 -0.328125 0.472656 -0.296875 0.453125 -0.265625 C 0.441406 -0.242188 0.421875 -0.222656 0.390625 -0.203125 C 0.359375 -0.191406 0.320312 -0.1875 0.28125 -0.1875 L 0.265625 -0.1875 C 0.242188 -0.1875 0.234375 -0.1875 0.234375 -0.1875 C 0.222656 -0.1875 0.210938 -0.179688 0.203125 -0.171875 C 0.191406 -0.171875 0.1875 -0.164062 0.1875 -0.15625 C 0.1875 -0.132812 0.191406 -0.117188 0.203125 -0.109375 C 0.210938 -0.109375 0.226562 -0.109375 0.25 -0.109375 L 0.375 -0.109375 C 0.476562 -0.109375 0.53125 -0.0546875 0.53125 0.046875 C 0.53125 0.078125 0.523438 0.109375 0.515625 0.140625 C 0.503906 0.171875 0.476562 0.191406 0.4375 0.203125 C 0.394531 0.222656 0.34375 0.234375 0.28125 0.234375 Z M 0.28125 -0.28125 C 0.300781 -0.28125 0.316406 -0.285156 0.328125 -0.296875 C 0.347656 -0.316406 0.359375 -0.335938 0.359375 -0.359375 C 0.359375 -0.390625 0.347656 -0.410156 0.328125 -0.421875 C 0.316406 -0.441406 0.300781 -0.453125 0.28125 -0.453125 C 0.25 -0.453125 0.226562 -0.441406 0.21875 -0.421875 C 0.207031 -0.410156 0.203125 -0.390625 0.203125 -0.359375 C 0.203125 -0.335938 0.207031 -0.316406 0.21875 -0.296875 C 0.226562 -0.285156 0.25 -0.28125 0.28125 -0.28125 Z M 0.28125 0.125 C 0.320312 0.125 0.351562 0.117188 0.375 0.109375 C 0.394531 0.0976562 0.40625 0.0820312 0.40625 0.0625 C 0.40625 0.0390625 0.398438 0.0234375 0.390625 0.015625 C 0.378906 0.015625 0.363281 0.015625 0.34375 0.015625 L 0.234375 0 C 0.234375 0 0.226562 0 0.21875 0 C 0.195312 0 0.179688 0.00390625 0.171875 0.015625 C 0.160156 0.0234375 0.15625 0.0390625 0.15625 0.0625 C 0.15625 0.0820312 0.164062 0.0976562 0.1875 0.109375 C 0.207031 0.117188 0.238281 0.125 0.28125 0.125 Z M 0.28125 0.125 "/></g></g></g></svg>