<svg width="46" height="28" viewBox="0 0 46 28" fill="none" xmlns="http://www.w3.org/2000/svg">
<path d="M23.0034 0.50226C11.4914 0.50226 0.5 14.3559 0.5 14.3559C0.5 14.3559 11.5274 27.5 23.0034 27.5C24.3804 27.5 25.7529 27.3102 27.0961 26.9779L25.4937 24.6931C24.6711 24.8445 23.835 24.9214 23.0034 24.9214C13.4589 24.9214 4.28625 14.2881 4.28625 14.2881C4.28625 14.2881 13.4318 3.07412 23.0034 3.07412C32.5749 3.07412 41.7138 14.322 41.7138 14.322C41.7138 14.322 37.1207 19.6262 31.0559 22.7314L28.7864 19.4951C31.3061 16.8012 31.6847 12.618 29.4851 9.47213C26.9632 5.87424 22.0072 5.01092 18.4216 7.53532C14.8314 10.0642 13.9682 15.0317 16.4856 18.6273C18.6875 21.7732 22.742 22.8309 26.127 21.3732H26.1315L29.5324 26.2186C38.3264 22.919 45.5 14.4011 45.5 14.4011C45.5 14.4011 34.5086 0.5 23.0011 0.5L23.0034 0.50226ZM22.9808 19.3302C20.0758 19.3302 17.7184 16.964 17.7184 14.0486C17.7184 11.1332 20.0758 8.76927 22.9808 8.76927C25.8859 8.76927 28.2455 11.1332 28.2455 14.0486C28.2455 16.964 25.8881 19.3302 22.9808 19.3302Z" fill="#00D639"/>
</svg>
